<svg width="208px" height="33px" viewBox="0 0 208 33" version="1.1" xmlns="http://www.w3.org/2000/svg" xmlns:xlink="http://www.w3.org/1999/xlink">

<title>UpCloud Brand Guide-0</title>
<desc>Created with Sketch.</desc>
<defs></defs>
<g id="Page-1" stroke="none" stroke-width="1" fill="none" fill-rule="evenodd">
<g id="Startpage" transform="translate(-20.000000, -26.000000)" fill-rule="nonzero">
<g id="Introduction-Header" transform="translate(-138.000000, -2.000000)">
<g id="Main-menu" transform="translate(138.000000, 0.000000)">
<g id="UpCloud-Brand-Guide-0" transform="translate(20.000000, 28.000000)">
<path d="M90.8238193,17.6917973 C90.8238193,22.0506459 88.3893224,23.9095666 84.3531828,23.9095666 C80.1462012,23.9095666 77.6689938,22.0506459 77.6689938,17.6917973 L77.6689938,0.726474767 L74.4657084,0.726474767 L74.4657084,18.0123008 C74.4657084,24.1873363 78.6726899,26.6658973 84.2464066,26.6658973 C89.713347,26.6658973 94.0271047,24.2087033 94.0271047,18.0123008 L94.0271047,0.726474767 L90.8238193,0.726474767 L90.8238193,17.6917973 Z M107.673101,7.37158219 C105.003696,7.37158219 103.145791,8.52539506 101.736345,10.4056827 L101.672279,10.4056827 L101.672279,7.79892029 L98.7893224,7.79892029 L98.7893224,32.1999257 L101.672279,32.1999257 L101.672279,24.0805018 L101.736345,24.0805018 C103.273922,26.0462571 105.067762,26.7940987 107.566324,26.7940987 C112.56345,26.7940987 115.595893,23.0121566 115.595893,17.072157 C115.595893,10.9398553 112.349897,7.37158219 107.673101,7.37158219 Z M107.352772,24.3796385 C103.10308,24.3796385 101.501437,21.1318689 101.501437,17.1362577 C101.501437,13.1406465 103.359343,9.82877626 107.395483,9.82877626 C110.897741,9.82877626 112.648871,12.9697113 112.648871,17.1148908 C112.648871,21.3028042 110.897741,24.3796385 107.352772,24.3796385 Z M130.758111,23.9523004 C125.440657,23.9523004 121.981109,19.7430201 121.981109,13.482517 C121.981109,7.47841672 125.120329,2.94863288 130.736756,2.94863288 C134.772895,2.94863288 137.314168,5.12805718 137.912115,8.31172601 L141.051335,8.31172601 C140.367967,3.58964002 136.758932,0.170935239 130.800821,0.170935239 C123.198357,0.170935239 118.692402,6.00410028 118.692402,13.5038839 C118.692402,21.2600704 123.41191,26.7940987 130.651335,26.7940987 C133.897331,26.7940987 136.502669,25.8753218 138.296509,24.1232356 C140.111704,22.3284156 141.328953,19.4866173 141.371663,16.9439556 L138.189733,16.9439556 C137.869405,20.661797 135.584394,23.9523004 130.758111,23.9523004 Z M145.194251,0.726474767 L148.077207,0.726474767 L148.077207,26.281293 L145.194251,26.281293 L145.194251,0.726474767 Z M160.505955,7.32884838 C154.996304,7.32884838 151.579466,11.687697 151.579466,17.0507901 C151.579466,22.4138832 155.017659,26.7727318 160.505955,26.7727318 C166.036961,26.7727318 169.389733,22.4138832 169.389733,17.0507901 C169.389733,11.687697 166.036961,7.32884838 160.505955,7.32884838 Z M160.505955,24.3369047 C156.576591,24.3369047 154.547844,21.1318689 154.547844,17.0507901 C154.547844,12.9697113 156.576591,9.72194173 160.505955,9.72194173 C164.435318,9.72194173 166.44271,12.9697113 166.44271,17.0507901 C166.44271,21.1318689 164.435318,24.3369047 160.505955,24.3369047 Z M184.594661,19.1661137 C184.594661,22.0933797 182.694045,24.3155378 179.768378,24.3155378 C177.163039,24.3155378 175.625462,22.926689 175.625462,20.5335956 L175.625462,7.79892029 L172.742505,7.79892029 L172.742505,20.5976963 C172.742505,24.4223723 175.177002,26.7086311 178.956879,26.7086311 C181.626283,26.7086311 183.206571,25.5334514 184.530595,23.7386313 L184.594661,23.7386313 L184.594661,26.281293 L187.498973,26.281293 L187.498973,7.79892029 L184.616016,7.79892029 L184.616016,19.1661137 L184.594661,19.1661137 Z M204.967556,0.726474767 L204.967556,10.4056827 L204.903491,10.4056827 C203.728953,8.65359649 201.721561,7.37158219 199.116222,7.37158219 C194.546201,7.37158219 191.001232,10.9398553 191.001232,17.0935239 C191.001232,23.0335235 194.140452,26.8154657 199.180287,26.8154657 C201.785626,26.8154657 203.494045,25.8112211 204.903491,24.037768 L204.967556,24.037768 L204.967556,26.281293 L207.850513,26.281293 L207.850513,0.726474767 L204.967556,0.726474767 Z M199.287064,24.3796385 C195.742094,24.3796385 193.96961,21.3028042 193.96961,17.1362577 C193.96961,12.9910782 195.76345,9.85014316 199.244353,9.85014316 C203.06694,9.85014316 205.138398,12.8415098 205.138398,17.1362577 C205.138398,21.3028042 203.408624,24.3796385 199.287064,24.3796385 Z" id="Shape" fill="#FFFFFF"></path>
<g id="logo-cables" transform="translate(0.000000, 0.641007)" fill="#7B00FF">
<path d="M59.324846,15.5764737 L28.0607803,15.5764737 L28.0607803,17.9268332 L59.3462012,17.9268332 C60.8410678,17.9268332 62.036961,19.1233799 62.036961,20.6190632 C62.036961,22.1147466 60.8410678,23.3112932 59.3462012,23.3112932 L25.6903491,23.3112932 L25.6903491,12.5423732 L23.3412731,12.5423732 L23.3412731,25.6616528 L59.324846,25.6616528 C62.1010267,25.6616528 64.3646817,23.3967609 64.3646817,20.6190632 C64.3646817,17.8413656 62.1010267,15.5764737 59.324846,15.5764737 Z" id="Shape"></path>
<path d="M2.49856263,12.8842437 C2.49856263,11.3885603 3.69445585,10.1920136 5.18932238,10.1920136 L36.1330595,10.1920136 C38.9092402,10.1920136 41.1728953,7.92712172 41.1728953,5.14942408 C41.1728953,2.37172644 38.9092402,0.106834525 36.1330595,0.106834525 L23.3626283,0.106834525 L23.3626283,5.49129456 L25.7117043,5.49129456 L25.7117043,2.45719406 L36.1330595,2.45719406 C37.6279261,2.45719406 38.8238193,3.65374074 38.8238193,5.14942408 C38.8238193,6.64510742 37.6279261,7.8416541 36.1330595,7.8416541 L5.18932238,7.8416541 C2.41314168,7.8416541 0.149486653,10.106546 0.149486653,12.8842437 C0.149486653,15.6619413 2.39178645,17.9482001 5.18932238,17.9482001 L20.9921971,17.9482001 L20.9921971,15.5978406 L5.18932238,15.5978406 C3.69445585,15.5764737 2.49856263,14.379927 2.49856263,12.8842437 Z" id="Shape"></path>
</g>
</g>
</g>
</g>
</g>
</g>
</svg>
